<svg width="16" height="16" viewBox="0 0 16 16" fill="none" xmlns="http://www.w3.org/2000/svg">
<g clip-path="url(#clip0_1027_34393)">
<path d="M13.6562 0H2.34375C1.05139 0 0 1.05114 0 2.34319V13.653C0 14.945 1.05139 15.9962 2.34375 15.9962H13.6562C14.9486 15.9962 16 14.945 16 13.653V2.34319C16 1.05114 14.9486 0 13.6562 0ZM15.0625 13.653C15.0625 14.4282 14.4316 15.0589 13.6562 15.0589H2.34375C1.56836 15.0589 0.9375 14.4282 0.9375 13.653V2.34319C0.9375 1.56798 1.56836 0.937274 2.34375 0.937274H13.6562C14.4316 0.937274 15.0625 1.56798 15.0625 2.34319V13.653Z" fill="#1C1D20" stroke="#1C1D20" stroke-width="0.199554"/>
<path d="M7.53125 6.59214C7.53125 5.55845 6.69019 4.71759 5.65625 4.71759H2.84375V11.2785H5.65625C6.69019 11.2785 7.53125 10.4376 7.53125 9.40396C7.53125 8.84453 7.28455 8.34184 6.89441 7.99805C7.28455 7.65426 7.53125 7.15158 7.53125 6.59214ZM6.59375 9.40396C6.59375 9.92081 6.17322 10.3412 5.65625 10.3412H3.78125V8.46669H5.65625C6.17322 8.46669 6.59375 8.88712 6.59375 9.40396ZM3.78125 7.52941V5.65486H5.65625C6.17322 5.65486 6.59375 6.0753 6.59375 6.59214C6.59375 7.10898 6.17322 7.52941 5.65625 7.52941H3.78125Z" fill="#1C1D20" stroke="#1C1D20" stroke-width="0.199554"/>
<path d="M10.8125 6.59216C9.52014 6.59216 8.46875 7.6433 8.46875 8.93535C8.46875 10.2274 9.52014 11.2785 10.8125 11.2785C11.6466 11.2785 12.4244 10.8298 12.8424 10.1073L12.0309 9.63794C11.7799 10.0718 11.313 10.3413 10.8125 10.3413C10.2013 10.3413 9.68005 9.94951 9.48657 9.40399H13.1563V8.93535C13.1563 7.6433 12.1049 6.59216 10.8125 6.59216ZM9.48657 8.46671C9.68005 7.92119 10.2013 7.52944 10.8125 7.52944C11.4237 7.52944 11.9449 7.92119 12.1384 8.46671H9.48657Z" fill="#1C1D20" stroke="#1C1D20" stroke-width="0.199554"/>
<path d="M8.9375 4.71759H12.6875V5.65486H8.9375V4.71759Z" fill="#1C1D20" stroke="#1C1D20" stroke-width="0.199554"/>
</g>
<defs>
<clipPath id="clip0_1027_34393">
<rect width="16" height="15.9962" fill="white"/>
</clipPath>
</defs>
</svg>
