<svg width="16" height="16" viewBox="0 0 16 16" fill="none" xmlns="http://www.w3.org/2000/svg">
<path d="M4.64613 0.00384429C2.08845 0.00384429 0 2.0918 0 4.64888V11.3626C0 13.9159 2.08845 16 4.64613 16H11.3615C13.9153 16 15.9999 13.912 15.9999 11.355V4.64504C15.9999 2.08796 13.9153 0 11.3576 0H4.64613V0.00384429ZM4.64613 1.23432H11.3576C13.2499 1.23432 14.7692 2.75318 14.7692 4.64888V11.3588C14.7692 13.2545 13.2499 14.7734 11.3615 14.7734H4.64613C2.74999 14.7734 1.23076 13.2545 1.23076 11.3665V4.65272C1.23461 2.75318 2.75383 1.23432 4.64613 1.23432ZM12.9269 2.46479C12.5846 2.46479 12.3115 2.7378 12.3115 3.08003C12.3115 3.42226 12.5846 3.69527 12.9269 3.69527C13.2692 3.69527 13.5422 3.42226 13.5422 3.08003C13.5422 2.7378 13.2692 2.46479 12.9269 2.46479ZM8.00381 3.69527C5.63459 3.69527 3.69614 5.63326 3.69614 8.00192C3.69614 10.3706 5.63459 12.3086 8.00381 12.3086C10.373 12.3086 12.3115 10.3706 12.3115 8.00192C12.3115 5.63326 10.373 3.69527 8.00381 3.69527ZM8.00381 4.92574C9.71149 4.92574 11.0807 6.29464 11.0807 8.00192C11.0807 9.7092 9.71149 11.0781 8.00381 11.0781C6.29612 11.0781 4.9269 9.7092 4.9269 8.00192C4.9269 6.29464 6.29612 4.92574 8.00381 4.92574Z" fill="#1C1D20"/>
</svg>
