<svg width="24" height="25" viewBox="0 0 24 25" fill="none" xmlns="http://www.w3.org/2000/svg">
<path d="M15.8115 4.26378C17.2455 2.82378 19.3435 2.79378 20.5045 3.95978C21.6685 5.12778 21.6375 7.23978 20.2015 8.67978L17.7785 11.1128C17.642 11.2544 17.5667 11.444 17.5687 11.6406C17.5707 11.8373 17.6498 12.0253 17.7891 12.1642C17.9283 12.303 18.1165 12.3816 18.3132 12.3831C18.5099 12.3845 18.6992 12.3086 18.8405 12.1718L21.2645 9.73878C23.1755 7.81978 23.4155 4.75678 21.5675 2.90078C19.7175 1.04378 16.6605 1.28578 14.7475 3.20478L9.90147 8.07178C7.99047 9.99078 7.75047 13.0538 9.59847 14.9088C9.66749 14.9806 9.75011 15.0379 9.84152 15.0774C9.93292 15.1169 10.0313 15.1378 10.1309 15.1389C10.2304 15.14 10.3292 15.1212 10.4215 15.0837C10.5137 15.0462 10.5976 14.9908 10.6682 14.9205C10.7387 14.8503 10.7946 14.7667 10.8325 14.6746C10.8705 14.5825 10.8897 14.4838 10.8891 14.3842C10.8884 14.2847 10.868 14.1862 10.8289 14.0946C10.7898 14.003 10.7329 13.9201 10.6615 13.8508C9.49747 12.6828 9.52947 10.5708 10.9645 9.13078L15.8115 4.26378Z" fill="white"/>
<path d="M14.5685 9.84975C14.4279 9.70878 14.2371 9.62943 14.038 9.62915C13.839 9.62887 13.6479 9.70768 13.507 9.84825C13.366 9.98881 13.2867 10.1796 13.2864 10.3787C13.2861 10.5778 13.3649 10.7688 13.5055 10.9097C14.6695 12.0777 14.6385 14.1887 13.2025 15.6297L8.35547 20.4957C6.92047 21.9357 4.82247 21.9657 3.66147 20.7997C2.49747 19.6317 2.52947 17.5197 3.96447 16.0797L6.38847 13.6467C6.458 13.5769 6.51311 13.4941 6.55064 13.403C6.58817 13.3119 6.60739 13.2144 6.60721 13.1158C6.60702 13.0173 6.58743 12.9198 6.54956 12.8288C6.51168 12.7379 6.45626 12.6553 6.38647 12.5857C6.31667 12.5162 6.23386 12.4611 6.14276 12.4236C6.05167 12.386 5.95407 12.3668 5.85555 12.367C5.75703 12.3672 5.65951 12.3868 5.56856 12.4247C5.4776 12.4625 5.395 12.5179 5.32547 12.5877L2.90147 15.0207C0.990467 16.9407 0.750467 20.0027 2.59847 21.8587C4.44847 23.7167 7.50547 23.4737 9.41847 21.5547L14.2655 16.6877C16.1765 14.7697 16.4165 11.7047 14.5685 9.84975Z" fill="white"/>
</svg>
