<svg width="16" height="16" viewBox="0 0 16 16" fill="none" xmlns="http://www.w3.org/2000/svg">
<path d="M13.6563 0H2.34376C1.05139 0 0 1.05123 0 2.34339V13.6542C0 14.9463 1.05139 15.9976 2.34376 15.9976H13.6563C14.9486 15.9976 16 14.9463 16 13.6542V2.34339C16 1.05123 14.9486 0 13.6563 0ZM15.0625 13.6542C15.0625 14.4295 14.4317 15.0602 13.6563 15.0602H2.34376C1.56836 15.0602 0.937502 14.4295 0.937502 13.6542V2.34339C0.937502 1.56812 1.56836 0.937358 2.34376 0.937358H13.6563C14.4317 0.937358 15.0625 1.56812 15.0625 2.34339V13.6542Z" fill="#1C1D20"/>
<path d="M12.4 11.5955C11.8278 11.5955 11.2596 11.5955 10.6826 11.5955C10.6826 11.5678 10.6826 11.542 10.6826 11.5161C10.6826 10.5839 10.6825 9.65159 10.6827 8.71944C10.6827 8.52101 10.668 8.32503 10.6183 8.1315C10.413 7.33338 9.52636 7.38002 9.17364 7.75827C8.99636 7.94837 8.88054 8.1632 8.87565 8.42871C8.87454 8.49187 8.87087 8.55516 8.87087 8.61832C8.8705 9.58316 8.87063 10.5481 8.87063 11.513C8.87063 11.539 8.87063 11.5651 8.87063 11.595C8.29607 11.595 7.72799 11.595 7.15625 11.595C7.15625 9.81574 7.15625 8.03834 7.15625 6.25764C7.72701 6.25764 8.29509 6.25764 8.86977 6.25764C8.86977 6.49867 8.86977 6.73614 8.86977 6.97362C8.8743 6.97558 8.87883 6.97766 8.88348 6.97962C8.89572 6.96297 8.90821 6.94657 8.92033 6.9298C9.0921 6.69061 9.28946 6.47859 9.5517 6.33525C9.84455 6.17501 10.1609 6.12128 10.4901 6.13082C10.8466 6.14123 11.1849 6.22165 11.4898 6.41396C11.8805 6.66049 12.1187 7.02124 12.2581 7.45396C12.3668 7.7912 12.4025 8.13909 12.4028 8.49139C12.4037 9.50519 12.4032 10.5191 12.4031 11.5329C12.4031 11.5527 12.4012 11.5726 12.4 11.5955Z" fill="#1C1D20"/>
<path d="M6.1085 11.5984C5.53823 11.5984 4.97347 11.5984 4.40332 11.5984C4.40332 9.81821 4.40332 8.03896 4.40332 6.25616C4.97029 6.25616 5.53664 6.25616 6.1085 6.25616C6.1085 8.0348 6.1085 9.81393 6.1085 11.5984Z" fill="#1C1D20"/>
<path d="M5.32902 3.59949C5.86587 3.59875 6.24577 3.98152 6.24761 4.52501C6.24932 5.06274 5.86367 5.44331 5.31641 5.44355C4.78225 5.44392 4.40137 5.06103 4.40039 4.52293C4.39941 3.98446 4.7858 3.60022 5.32902 3.59949Z" fill="#1C1D20"/>
</svg>
