<svg width="50" height="40" viewBox="0 0 50 40" fill="none" xmlns="http://www.w3.org/2000/svg">
<path d="M1 37.8159V2.19518C1 2.19518 4.77551 1.75602 7.12445 2.19518C10.501 2.82646 12.3334 3.91627 14.9987 6.03339C17.8331 8.28478 20.6857 13.2833 20.6857 13.2833H21.5607C21.5607 13.2833 24.0926 8.26759 26.8102 6.03339C29.5559 3.77609 31.5858 2.80868 35.1219 2.19518C37.4767 1.78665 41.2464 2.19518 41.2464 2.19518C41.2464 2.19518 39.6653 5.28203 39.5116 7.44186C39.4081 8.89618 40.0471 9.80264 41.186 10.3721C42.0233 10.7907 42.4671 11.2097 42.9962 12.0039C43.4953 12.753 43.8711 14.1363 43.8711 14.1363H45.1835C45.1835 14.1363 46.0336 13.0417 46.6279 12.8837C46.6279 12.8837 47.3462 12.8306 47.8837 12.8837C48.4965 12.9443 49.1207 13.7098 49.1207 13.7098C49.5027 14.0822 49.5581 14.4625 49.5581 14.9892C49.5581 15.5159 49.4448 15.8473 49.1207 16.2686C48.6623 16.8645 47.8105 17.0641 47.0465 17.0698C45.9526 17.0778 45.1835 15.4157 45.1835 15.4157H43.8711C43.8711 15.4157 43.3297 17.1478 42.5588 17.9745C41.5309 19.0767 39.7786 19.4577 38.2558 19.5814C38.2558 19.5814 36.7662 19.4982 35.7442 19.1628C34.4856 18.7498 33.7855 17.7451 33.3721 16.6512C32.9587 15.5572 33.0372 14.4025 33.3721 13.2833C33.586 12.5683 33.8001 12.1781 34.247 11.5775C34.6743 11.0032 35.2913 10.9617 35.5594 10.2981C35.8089 9.68038 35.5594 8.59219 35.5594 8.59219L35.1219 8.16572C35.1219 8.16572 34.588 8.14403 34.247 8.16572C31.9069 8.31457 31.193 9.01059 29.0351 11.1144L28.9975 11.151C26.8365 13.2577 25.4978 17.9745 25.4978 17.9745H16.3111C16.3111 17.9745 14.9837 13.2466 12.8114 11.151C11.1245 9.52352 7.56191 8.16572 7.56191 8.16572C7.56191 8.16572 6.98365 8.00046 6.68699 8.16572C6.35531 8.35049 6.24953 9.01866 6.24953 9.01866V32.0479C6.24953 32.0479 6.47089 32.369 6.68699 32.4744C7.1702 32.7099 7.99937 32.4744 7.99937 32.4744C7.99937 32.4744 11.0442 31.4807 12.8114 29.4891C14.5609 27.5175 16.7486 22.2391 16.7486 22.2391H25.9353C25.9353 22.2391 27.2476 27.3568 29.4349 29.4891C31.4455 31.4491 34.6845 32.4744 34.6845 32.4744H35.5594C35.801 32.4744 35.9969 32.0479 35.9969 32.0479V27.3568C35.9969 27.3568 36.0509 27.0883 35.9969 26.9303C35.9205 26.7068 35.5594 26.5038 35.5594 26.5038H31.1848V22.2391H41.2464V37.8159C41.2464 37.8159 37.4756 38.2301 35.1219 37.8159C31.9964 37.2659 30.2371 36.4499 27.6851 34.6067C24.5549 32.3458 21.5607 26.9303 21.5607 26.9303H20.6857C19.2273 30.4519 17.7036 32.3618 14.5613 34.6067C11.8729 36.5273 9.97857 37.3052 6.68699 37.8159C4.49369 38.1562 1 37.8159 1 37.8159Z" fill="white"/>
</svg>
